<svg width="20" height="20" viewBox="0 0 20 20" fill="none" xmlns="http://www.w3.org/2000/svg">
<path fill-rule="evenodd" clip-rule="evenodd" d="M3.25439 2.05668C2.74892 2.21465 2.25829 2.74078 2.1681 3.2216L2.14126 3.36465L4.8895 3.3757C7.43985 3.38594 7.649 3.3918 7.794 3.45715C8.00595 3.5527 8.08185 3.62945 8.77677 4.45117L9.37966 5.16406L12.9228 5.16473C15.8877 5.16531 16.5105 5.1748 16.7393 5.22281C17.5358 5.39004 18.2144 6.00379 18.4884 6.80469L18.5752 7.05859L18.5861 11.3694L18.5971 15.6802L18.7424 15.6544C19.1248 15.5868 19.6204 15.2149 19.8016 14.8596C20.0062 14.4586 20.001 14.5902 20.001 9.77055C20.001 6.90469 19.9867 5.21613 19.9614 5.08148C19.8338 4.40465 19.2517 3.8759 18.5436 3.79383C18.3891 3.7759 16.6631 3.75984 14.7081 3.75813L11.1534 3.75504L10.418 2.8775L9.68267 2L6.55083 2.00262C4.07568 2.00469 3.38447 2.01602 3.25439 2.05668ZM1.29697 4.11211C0.675795 4.23434 0.161069 4.76063 0.0404053 5.39688C-0.0133837 5.68039 -0.0135009 16.2096 0.0402491 16.493C0.149233 17.0678 0.590952 17.5504 1.16826 17.7257C1.43822 17.8076 16.4545 17.8076 16.7244 17.7257C17.1333 17.6015 17.4752 17.3301 17.677 16.9695C17.8995 16.5714 17.8945 16.7009 17.8828 11.7164L17.8721 7.13672L17.7829 6.9159C17.6097 6.48762 17.2712 6.14914 16.8429 5.97598L16.6221 5.88672L12.8331 5.87391L9.04399 5.86109L8.45806 5.15621C8.13579 4.76852 7.79212 4.36559 7.69435 4.26082L7.51657 4.07031L4.49122 4.07461C2.82728 4.07695 1.38986 4.09383 1.29697 4.11211Z" fill="white"/>
</svg>
