<svg width="30" height="30" viewBox="0 0 30 30" fill="none" xmlns="http://www.w3.org/2000/svg">
<path d="M7.5 0C6.46875 0 5.625 0.84375 5.625 1.875V28.125C5.625 29.1562 6.46875 30 7.5 30H26.25C27.2812 30 28.125 29.1562 28.125 28.125V7.5L20.625 0H7.5Z" fill="#E2E5E7"/>
<path d="M22.5 7.5H28.125L20.625 0V5.625C20.625 6.65625 21.4688 7.5 22.5 7.5Z" fill="#B0B7BD"/>
<path d="M28.125 13.125L22.5 7.5H28.125V13.125Z" fill="#CAD1D8"/>
<path d="M24.375 24.375C24.375 24.8906 23.9531 25.3125 23.4375 25.3125H2.8125C2.29688 25.3125 1.875 24.8906 1.875 24.375V15C1.875 14.4844 2.29688 14.0625 2.8125 14.0625H23.4375C23.9531 14.0625 24.375 14.4844 24.375 15V24.375Z" fill="#50BEE8"/>
<path d="M5.42431 22.5001C5.17681 22.5001 4.90681 22.3641 4.90681 22.0351V17.7779C4.90681 17.5079 5.17681 17.3129 5.42431 17.3129H7.14088C10.5665 17.3129 10.4906 22.5001 7.20744 22.5001H5.42431ZM5.89681 18.2269V21.5851H7.14088C9.16494 21.5851 9.254 18.2269 7.14088 18.2269H5.89681Z" fill="white"/>
<path d="M13.3584 22.575C11.9718 22.635 10.5318 21.7125 10.5318 19.8759C10.5318 18.0319 11.9709 17.1253 13.3584 17.1253C14.67 17.1919 16.0415 18.0994 16.0415 19.8759C16.0415 21.6534 14.67 22.575 13.3584 22.575ZM13.2759 18.1003C12.4359 18.1003 11.5218 18.6928 11.5218 19.8769C11.5218 21.0544 12.4368 21.6544 13.2759 21.6544C14.1384 21.6544 15.06 21.0544 15.06 19.8769C15.06 18.6919 14.1384 18.1003 13.2759 18.1003Z" fill="white"/>
<path d="M16.9263 19.8684C16.9263 18.4219 17.8339 17.1778 19.5579 17.1778C20.2104 17.1778 20.7279 17.3728 21.2745 17.8453C21.477 18.0319 21.4995 18.3619 21.297 18.5719C21.0945 18.7509 20.787 18.7294 20.607 18.5494C20.3004 18.2269 19.9854 18.1378 19.5579 18.1378C18.4039 18.1378 17.8498 18.9553 17.8498 19.8694C17.8498 20.7994 18.3964 21.6534 19.5579 21.6534C19.9854 21.6534 20.3829 21.48 20.7279 21.1734C20.9595 20.9934 21.282 21.0825 21.417 21.2634C21.537 21.4284 21.596 21.7059 21.3345 21.9675C20.8095 22.4559 20.1804 22.5534 19.557 22.5534C17.7438 22.5534 16.9263 21.315 16.9263 19.8684Z" fill="white"/>
<path d="M23.4375 25.3125H5.625V26.25H23.4375C23.9531 26.25 24.375 25.8281 24.375 25.3125V24.375C24.375 24.8906 23.9531 25.3125 23.4375 25.3125Z" fill="#CAD1D8"/>
</svg>
