<svg width="45" height="28" viewBox="0 0 45 28" fill="none" xmlns="http://www.w3.org/2000/svg">
<g clip-path="url(#clip0_8_340)">
<path d="M3.36043 0.250488C1.55492 0.250488 0.0862122 1.7193 0.0862122 3.52471C0.0862122 5.33013 1.55431 6.79883 3.36043 6.79883C5.16656 6.79883 6.63466 5.33013 6.63466 3.52471C6.63466 1.7193 5.16585 0.250488 3.36043 0.250488Z" fill="white"/>
<path d="M13.9574 0.250488C12.152 0.250488 10.6832 1.7193 10.6832 3.52471C10.6832 5.33013 12.152 6.79883 13.9574 6.79883C15.7629 6.79883 17.2319 5.33013 17.2319 3.52471C17.2319 1.7193 15.7635 0.250488 13.9574 0.250488Z" fill="white"/>
<path d="M24.7258 6.79893C26.5309 6.79893 28.0001 5.33023 28.0001 3.52481C28.0001 1.7194 26.5322 0.250488 24.7258 0.250488C22.9195 0.250488 21.4516 1.7193 21.4516 3.52471C21.4516 5.33013 22.9206 6.79893 24.7258 6.79893Z" fill="white"/>
<path d="M3.27483 17.2906C5.08025 17.2906 6.54936 15.8222 6.54936 14.0165C6.54936 12.2106 5.08025 10.7419 3.27483 10.7419C1.46942 10.7419 0 12.2107 0 14.0165C0 15.8222 1.46942 17.2906 3.27483 17.2906Z" fill="white"/>
<path d="M13.8718 17.2906C15.6769 17.2906 17.146 15.8222 17.146 14.0165C17.146 12.2106 15.6781 10.7419 13.8718 10.7419C12.0657 10.7419 10.5975 12.2106 10.5975 14.0165C10.5975 15.8222 12.0663 17.2906 13.8718 17.2906Z" fill="white"/>
<path d="M24.6412 17.2906C26.447 17.2906 27.9154 15.8222 27.9154 14.0165C27.9154 12.2106 26.447 10.7419 24.6412 10.7419C22.8354 10.7419 21.3658 12.2106 21.3658 14.0165C21.3658 15.8222 22.8349 17.2906 24.6412 17.2906Z" fill="white"/>
<path d="M3.34972 21.2009C1.54431 21.2009 0.0748901 22.6693 0.0748901 24.4751C0.0748901 26.2803 1.54431 27.7493 3.34972 27.7493C5.15514 27.7493 6.62384 26.281 6.62384 24.4751C6.62384 22.6693 5.15514 21.2009 3.34972 21.2009Z" fill="white"/>
<path d="M13.9473 21.2009C12.1418 21.2009 10.6725 22.6693 10.6725 24.4751C10.6725 26.2803 12.1413 27.7493 13.9473 27.7493C15.7524 27.7493 17.2214 26.281 17.2214 24.4751C17.2214 22.6693 15.7524 21.2009 13.9473 21.2009Z" fill="white"/>
<path d="M24.7154 21.2009C22.9103 21.2009 21.4412 22.6693 21.4412 24.4751C21.4412 26.2803 22.9103 27.7493 24.7154 27.7493C26.5212 27.7493 27.9896 26.281 27.9896 24.4751C27.9896 22.6693 26.5205 21.2009 24.7154 21.2009Z" fill="white"/>
</g>
<path d="M39.3554 17.6409C39.1597 17.8386 38.8403 17.8386 38.6446 17.6409L34.6468 13.6017C34.3344 13.286 34.558 12.75 35.0022 12.75L42.9978 12.75C43.442 12.75 43.6656 13.286 43.3532 13.6017L39.3554 17.6409Z" fill="#D4D5D7"/>
<defs>
<clipPath id="clip0_8_340">
<rect width="28" height="28" fill="white"/>
</clipPath>
</defs>
</svg>
