<svg width="20" height="16" viewBox="0 0 20 16" fill="none" xmlns="http://www.w3.org/2000/svg">
<path fill-rule="evenodd" clip-rule="evenodd" d="M1.72664 0.774297C1.31199 0.88293 0.996211 1.0659 0.683398 1.37871C0.365781 1.69629 0.186719 2.00902 0.0771484 2.43734C0.00210938 2.73074 0 2.88953 0 8.19531C0 13.5011 0.00210938 13.6599 0.0771484 13.9533C0.186719 14.3816 0.365781 14.6943 0.683398 15.0119C1.00098 15.3295 1.31371 15.5086 1.74203 15.6182C2.03766 15.6938 2.20457 15.6953 10 15.6953C17.7954 15.6953 17.9623 15.6938 18.258 15.6182C18.6863 15.5086 18.999 15.3295 19.3166 15.0119C19.6342 14.6943 19.8133 14.3816 19.9229 13.9533C19.9979 13.6599 20 13.5011 20 8.19531C20 2.88953 19.9979 2.73074 19.9229 2.43734C19.8138 2.01121 19.6339 1.6966 19.3164 1.37734C19.0002 1.05934 18.6929 0.883711 18.258 0.772461C17.9622 0.696836 17.7991 0.695352 9.98398 0.697461C2.26316 0.699532 2.00273 0.701953 1.72664 0.774297ZM6.89734 4.13719C7.56012 4.34 8.13824 4.98691 8.28395 5.68875C8.34703 5.99258 8.31152 6.52355 8.20918 6.80707C7.85375 7.79172 6.7932 8.37285 5.78527 8.13527C5.10961 7.97598 4.52535 7.45672 4.29082 6.80707C4.18848 6.52355 4.15297 5.99258 4.21605 5.68875C4.28297 5.36645 4.49215 4.96293 4.72344 4.71C5.27562 4.10606 6.09234 3.89086 6.89734 4.13719ZM17.2115 4.54539C17.4165 4.69844 17.4805 4.82328 17.4805 5.07031C17.4805 5.31734 17.4165 5.44219 17.2115 5.59523C17.1052 5.67465 17.0679 5.67578 14.5898 5.67578C12.1004 5.67578 12.075 5.675 11.9657 5.59406C11.6176 5.33609 11.5795 4.89523 11.8811 4.61367C11.9315 4.56664 12.0166 4.51039 12.0704 4.48875C12.1331 4.46344 13.0496 4.45215 14.6358 4.45711C17.0613 4.46473 17.1055 4.46621 17.2115 4.54539ZM17.1985 7.87699C17.3987 8.00145 17.5146 8.23422 17.4891 8.46055C17.4668 8.65777 17.3748 8.80051 17.1879 8.92773L17.0588 9.01562H14.5997C12.4118 9.01562 12.126 9.00863 12.0071 8.95223C11.8106 8.85898 11.7059 8.68832 11.688 8.43223C11.6689 8.16016 11.774 7.98297 12.0316 7.85258L12.207 7.76371L14.6289 7.77445L17.0508 7.78516L17.1985 7.87699ZM8.32031 9.10992C8.88281 9.29512 9.30699 9.60617 9.60527 10.0521C9.87813 10.4601 9.96492 10.7556 9.98973 11.3611C10.0079 11.8046 10.002 11.8663 9.92797 12.0114C9.88238 12.1009 9.78086 12.2124 9.69848 12.2636L9.55078 12.3555H6.25H2.94922L2.80152 12.2636C2.71949 12.2127 2.61766 12.1009 2.5725 12.0124C2.4993 11.8689 2.49305 11.8041 2.5098 11.3621C2.5327 10.7573 2.61859 10.465 2.89473 10.0521C3.25484 9.51371 3.86109 9.13484 4.51172 9.04164C4.57617 9.03238 5.41113 9.02805 6.36719 9.03199C7.9277 9.03844 8.12742 9.04641 8.32031 9.10992ZM17.1879 11.2129C17.3748 11.3401 17.4668 11.4829 17.4891 11.6801C17.5146 11.9064 17.3987 12.1392 17.1985 12.2636L17.0508 12.3555L14.6289 12.3662L12.207 12.3769L12.0316 12.288C11.774 12.1577 11.6689 11.9805 11.688 11.7084C11.7057 11.4554 11.8087 11.2846 12.0007 11.19C12.1146 11.1338 12.4032 11.1267 14.5938 11.1259L17.0588 11.125L17.1879 11.2129Z" fill="white"/>
</svg>
