<svg width="20" height="20" viewBox="0 0 20 20" fill="none" xmlns="http://www.w3.org/2000/svg">
<path d="M10.3923 9.31373C9.74229 9.31373 9.11888 9.0555 8.65923 8.59585C8.19958 8.1362 7.94135 7.51279 7.94135 6.86275C7.94135 6.21271 8.19958 5.58929 8.65923 5.12964C9.11888 4.66999 9.74229 4.41177 10.3923 4.41177C11.0424 4.41177 11.6658 4.66999 12.1254 5.12964C12.5851 5.58929 12.8433 6.21271 12.8433 6.86275C12.8433 7.18461 12.7799 7.50333 12.6567 7.8007C12.5336 8.09806 12.353 8.36826 12.1254 8.59585C11.8978 8.82345 11.6277 9.00398 11.3303 9.12716C11.0329 9.25033 10.7142 9.31373 10.3923 9.31373ZM10.3923 0C8.57222 0 6.82665 0.723037 5.53964 2.01005C4.25262 3.29707 3.52959 5.04263 3.52959 6.86275C3.52959 12.0098 10.3923 19.6078 10.3923 19.6078C10.3923 19.6078 17.2551 12.0098 17.2551 6.86275C17.2551 5.04263 16.532 3.29707 15.245 2.01005C13.958 0.723037 12.2124 0 10.3923 0Z" fill="white"/>
</svg>
