<svg width="30" height="30" viewBox="0 0 30 30" fill="none" xmlns="http://www.w3.org/2000/svg">
<path d="M7.5 0C6.46875 0 5.625 0.84375 5.625 1.875V28.125C5.625 29.1562 6.46875 30 7.5 30H26.25C27.2812 30 28.125 29.1562 28.125 28.125V7.5L20.625 0H7.5Z" fill="#E2E5E7"/>
<path d="M22.5 7.5H28.125L20.625 0V5.625C20.625 6.65625 21.4688 7.5 22.5 7.5Z" fill="#B0B7BD"/>
<path d="M28.125 13.125L22.5 7.5H28.125V13.125Z" fill="#CAD1D8"/>
<path d="M24.375 24.375C24.375 24.8906 23.9531 25.3125 23.4375 25.3125H2.8125C2.29688 25.3125 1.875 24.8906 1.875 24.375V15C1.875 14.4844 2.29688 14.0625 2.8125 14.0625H23.4375C23.9531 14.0625 24.375 14.4844 24.375 15V24.375Z" fill="#F15642"/>
<path d="M5.96155 17.7627C5.96155 17.5152 6.15655 17.2452 6.47061 17.2452H8.20217C9.17717 17.2452 10.0547 17.8977 10.0547 19.1484C10.0547 20.3334 9.17717 20.9934 8.20217 20.9934H6.95061V21.9834C6.95061 22.3134 6.74061 22.4999 6.47061 22.4999C6.22311 22.4999 5.96155 22.3134 5.96155 21.9834V17.7627ZM6.95061 18.1893V20.0568H8.20217C8.70467 20.0568 9.10217 19.6134 9.10217 19.1484C9.10217 18.6243 8.70467 18.1893 8.20217 18.1893H6.95061Z" fill="white"/>
<path d="M11.5227 22.4998C11.2752 22.4998 11.0052 22.3648 11.0052 22.0357V17.7776C11.0052 17.5086 11.2752 17.3126 11.5227 17.3126H13.2393C16.6649 17.3126 16.5899 22.4998 13.3068 22.4998H11.5227ZM11.9952 18.2276V21.5857H13.2393C15.2633 21.5857 15.3533 18.2276 13.2393 18.2276H11.9952Z" fill="white"/>
<path d="M17.8055 18.2878V19.4793H19.717C19.987 19.4793 20.257 19.7493 20.257 20.0109C20.257 20.2584 19.987 20.4609 19.717 20.4609H17.8055V22.035C17.8055 22.2975 17.6189 22.499 17.3564 22.499C17.0264 22.499 16.8248 22.2975 16.8248 22.035V17.7768C16.8248 17.5078 17.0273 17.3118 17.3564 17.3118H19.988C20.318 17.3118 20.513 17.5078 20.513 17.7768C20.513 18.0168 20.318 18.2868 19.988 18.2868H17.8055V18.2878Z" fill="white"/>
<path d="M23.4375 25.3125H5.625V26.25H23.4375C23.9531 26.25 24.375 25.8281 24.375 25.3125V24.375C24.375 24.8906 23.9531 25.3125 23.4375 25.3125Z" fill="#CAD1D8"/>
</svg>
