<svg width="20" height="20" viewBox="0 0 20 20" fill="none" xmlns="http://www.w3.org/2000/svg">
<path d="M19.4616 13.979L16.8034 11.3209C15.8541 10.3715 14.2402 10.7513 13.8605 11.9854C13.5757 12.8399 12.6263 13.3145 11.7719 13.1246C9.87324 12.65 7.31002 10.1817 6.83535 8.18806C6.55055 7.33361 7.12015 6.38427 7.97456 6.09951C9.2087 5.71977 9.58844 4.1059 8.6391 3.15656L5.98094 0.498403C5.22147 -0.166134 4.08226 -0.166134 3.41773 0.498403L1.61398 2.30215C-0.189767 4.20083 1.80385 9.23233 6.26575 13.6942C10.7276 18.1561 15.7591 20.2447 17.6578 18.346L19.4616 16.5422C20.1261 15.7828 20.1261 14.6436 19.4616 13.979Z" fill="white"/>
</svg>
