<svg width="20" height="20" viewBox="0 0 20 20" fill="none" xmlns="http://www.w3.org/2000/svg">
<path fill-rule="evenodd" clip-rule="evenodd" d="M2.47035 2.03947C1.36664 2.18154 0.441172 2.98509 0.0914844 4.10498L0 4.39794V10.2768V16.1557L0.0914844 16.4487C0.44918 17.5943 1.36254 18.3716 2.52168 18.517C2.97598 18.5739 16.985 18.5739 17.4393 18.517C18.5892 18.3728 19.4918 17.6112 19.8673 16.4682C19.9535 16.2057 19.9577 16.1345 19.9716 14.6828L19.9861 13.1707L17.0438 13.1574C13.7752 13.1425 13.9481 13.1559 13.3515 12.871C11.6651 12.0656 11.1889 9.86591 12.3908 8.43232C12.7573 7.99517 13.2942 7.64849 13.8672 7.47904C14.0806 7.41591 14.3644 7.40853 17.0438 7.39634L19.9861 7.38298L19.9716 5.87091C19.9577 4.41919 19.9535 4.34798 19.8673 4.08544C19.4918 2.94248 18.5892 2.18092 17.4393 2.0367C17.035 1.98603 2.86527 1.98865 2.47035 2.03947ZM14.1172 8.61888C13.2841 8.87548 12.7583 9.71192 12.9023 10.5516C13.016 11.2145 13.4874 11.7452 14.1329 11.9369C14.3008 11.9868 14.7558 11.9956 17.1555 11.9956H19.9805V10.2768V8.5581L17.1387 8.56083C14.8032 8.56306 14.2649 8.57341 14.1172 8.61888ZM15.6686 9.79099C15.8623 9.93571 15.927 10.0573 15.927 10.2768C15.927 10.4965 15.8623 10.618 15.6686 10.7627C15.5764 10.8316 15.4915 10.8452 15.0838 10.8568C14.8173 10.8644 14.5375 10.8517 14.45 10.8281C14.0354 10.7165 13.8882 10.1905 14.1848 9.88083C14.3399 9.71903 14.4645 9.69317 15.046 9.70235C15.4975 9.70942 15.5741 9.72036 15.6686 9.79099Z" fill="white"/>
</svg>
