<svg width="30" height="30" viewBox="0 0 30 30" fill="none" xmlns="http://www.w3.org/2000/svg">
<path d="M7.5 0C6.46875 0 5.625 0.84375 5.625 1.875V28.125C5.625 29.1562 6.46875 30 7.5 30H26.25C27.2812 30 28.125 29.1562 28.125 28.125V7.5L20.625 0H7.5Z" fill="#E2E5E7"/>
<path d="M22.5 7.5H28.125L20.625 0V5.625C20.625 6.65625 21.4688 7.5 22.5 7.5Z" fill="#B0B7BD"/>
<path d="M28.125 13.125L22.5 7.5H28.125V13.125Z" fill="#CAD1D8"/>
<path d="M25 24.0625C25 24.5781 24.5781 25 24.0625 25H3.4375C2.92188 25 2.5 24.5781 2.5 24.0625V14.6875C2.5 14.1719 2.92188 13.75 3.4375 13.75H24.0625C24.5781 13.75 25 14.1719 25 14.6875V24.0625Z" fill="#84BD5A"/>
<path d="M8.45568 19.1127L9.75975 17.4787C10.1497 16.9687 10.9073 17.6202 10.4798 18.1077C10.0307 18.6402 9.55819 19.2177 9.10818 19.8093L10.6372 21.7134C11.0498 22.2759 10.2257 22.8149 9.82069 22.2599L8.44068 20.4909L7.08412 22.2984C6.70162 22.8449 5.85412 22.2309 6.28162 21.7209L7.78818 19.8093C7.31568 19.2168 6.85818 18.6402 6.40162 18.1077C5.93005 17.5452 6.80662 16.9687 7.15162 17.4946L8.45568 19.1127Z" fill="white"/>
<path d="M11.5631 17.7628C11.5631 17.5153 11.7731 17.3053 12.0356 17.3053C12.2756 17.3053 12.4781 17.5163 12.4781 17.7628V21.5185H14.5172C15.2513 21.5185 15.2672 22.5 14.5172 22.5H12.0366C11.7741 22.5 11.5641 22.3135 11.5641 22.0435V17.7628H11.5631Z" fill="white"/>
<path d="M15.9386 18.4378C16.1111 16.9828 18.3067 16.7213 19.3417 17.5163C19.8517 17.9278 19.3117 18.5803 18.8617 18.2503C18.3067 17.8988 17.0477 17.7338 16.8902 18.5119C16.6877 19.7419 19.9483 19.0378 19.8958 21.0319C19.8433 22.9359 17.0852 22.98 16.0502 22.1259C15.8017 21.9234 15.8102 21.5944 15.9452 21.3909C16.1402 21.1969 16.3567 21.1294 16.6127 21.3394C17.2267 21.7584 18.8092 22.0734 18.9208 21.0084C18.8242 19.9003 15.7061 20.5669 15.9386 18.4378Z" fill="white"/>
<path d="M23.4375 25.3125H5.625V26.25H23.4375C23.9531 26.25 24.375 25.8281 24.375 25.3125V24.375C24.375 24.8906 23.9531 25.3125 23.4375 25.3125Z" fill="#CAD1D8"/>
</svg>
