<svg width="17" height="11" viewBox="0 0 17 11" fill="none" xmlns="http://www.w3.org/2000/svg">
<path d="M8.25195 10.8555C13.0625 10.8555 16.2969 6.97656 16.2969 5.77539C16.2969 4.57422 13.0508 0.701172 8.25195 0.701172C3.51172 0.701172 0.195312 4.57422 0.195312 5.77539C0.195312 6.97656 3.5 10.8555 8.25195 10.8555ZM8.25195 9.70703C4.51367 9.70703 1.55469 6.5957 1.55469 5.77539C1.55469 5.08984 4.51367 1.84961 8.25195 1.84961C11.9727 1.84961 14.9375 5.08984 14.9375 5.77539C14.9375 6.5957 11.9727 9.70703 8.25195 9.70703ZM8.25195 8.92188C9.99805 8.92188 11.3984 7.48633 11.3984 5.77539C11.3984 4.02344 9.99805 2.63477 8.25195 2.63477C6.49414 2.63477 5.08789 4.02344 5.09375 5.77539C5.10547 7.48633 6.49414 8.92188 8.25195 8.92188ZM8.24609 6.78906C7.68359 6.78906 7.22656 6.33203 7.22656 5.77539C7.22656 5.21875 7.68359 4.76172 8.24609 4.76172C8.80859 4.76172 9.26562 5.21875 9.26562 5.77539C9.26562 6.33203 8.80859 6.78906 8.24609 6.78906Z" fill="#0E3B75" fill-opacity="0.6"/>
</svg>
